<svg xmlns="http://www.w3.org/2000/svg" width="760" height="340" viewBox="0 0 760 340" role="img" aria-label="Пропускная способность: запись против чтения">
<rect width="760" height="340" fill="#fbfbfd"/>
<text x="74" y="24" fill="#22252b" font-size="15" font-family="system-ui, -apple-system, 'Segoe UI', Roboto, sans-serif" font-weight="600">Пропускная способность: запись против чтения</text>
<text x="74" y="40" fill="#666b75" font-size="11.5" font-family="system-ui, -apple-system, 'Segoe UI', Roboto, sans-serif">Шкала логарифмическая: на линейной запись прижимается к нулю чтением.</text>
<line x1="74.0" y1="233.2" x2="734.0" y2="233.2" stroke="#dfe1e8" stroke-width="1.0" stroke-dasharray="3 4"/>
<text x="64.0" y="237.2" fill="#666b75" font-size="11" font-family="system-ui, -apple-system, 'Segoe UI', Roboto, sans-serif" font-weight="400" text-anchor="end">10</text>
<line x1="74.0" y1="175.3" x2="734.0" y2="175.3" stroke="#dfe1e8" stroke-width="1.0" stroke-dasharray="3 4"/>
<text x="64.0" y="179.3" fill="#666b75" font-size="11" font-family="system-ui, -apple-system, 'Segoe UI', Roboto, sans-serif" font-weight="400" text-anchor="end">30</text>
<line x1="74.0" y1="112.0" x2="734.0" y2="112.0" stroke="#dfe1e8" stroke-width="1.0" stroke-dasharray="3 4"/>
<text x="64.0" y="116.0" fill="#666b75" font-size="11" font-family="system-ui, -apple-system, 'Segoe UI', Roboto, sans-serif" font-weight="400" text-anchor="end">100</text>
<line x1="74.0" y1="54.1" x2="734.0" y2="54.1" stroke="#dfe1e8" stroke-width="1.0" stroke-dasharray="3 4"/>
<text x="64.0" y="58.1" fill="#666b75" font-size="11" font-family="system-ui, -apple-system, 'Segoe UI', Roboto, sans-serif" font-weight="400" text-anchor="end">300</text>
<line x1="74.0" y1="46.0" x2="734.0" y2="46.0" stroke="#dfe1e8" stroke-width="1.0" stroke-dasharray="3 4"/>
<line x1="74.0" y1="284.0" x2="734.0" y2="284.0" stroke="#3c4048" stroke-width="1.4"/>
<line x1="74.0" y1="284.0" x2="74.0" y2="46.0" stroke="#3c4048" stroke-width="1.4"/>
<text x="74.0" y="304.0" fill="#666b75" font-size="11" font-family="system-ui, -apple-system, 'Segoe UI', Roboto, sans-serif" font-weight="400" text-anchor="middle">1</text>
<text x="206.0" y="304.0" fill="#666b75" font-size="11" font-family="system-ui, -apple-system, 'Segoe UI', Roboto, sans-serif" font-weight="400" text-anchor="middle">2</text>
<text x="338.0" y="304.0" fill="#666b75" font-size="11" font-family="system-ui, -apple-system, 'Segoe UI', Roboto, sans-serif" font-weight="400" text-anchor="middle">4</text>
<text x="470.0" y="304.0" fill="#666b75" font-size="11" font-family="system-ui, -apple-system, 'Segoe UI', Roboto, sans-serif" font-weight="400" text-anchor="middle">8</text>
<text x="602.0" y="304.0" fill="#666b75" font-size="11" font-family="system-ui, -apple-system, 'Segoe UI', Roboto, sans-serif" font-weight="400" text-anchor="middle">16</text>
<text x="734.0" y="304.0" fill="#666b75" font-size="11" font-family="system-ui, -apple-system, 'Segoe UI', Roboto, sans-serif" font-weight="400" text-anchor="middle">32</text>
<text x="404.0" y="326.0" fill="#666b75" font-size="11.5" font-family="system-ui, -apple-system, 'Segoe UI', Roboto, sans-serif" font-weight="400" text-anchor="middle">потоков одновременно</text>
<text x="18" y="165.0" fill="#666b75" font-size="11.5" font-family="system-ui, -apple-system, 'Segoe UI', Roboto, sans-serif" text-anchor="middle" transform="rotate(-90 18 165.0)">успешных запросов в секунду</text>
<polyline points="74.0,247.5 206.0,211.0 338.0,192.9 470.0,203.2 602.0,206.1 734.0,212.1" fill="none" stroke="#3f5fd0" stroke-width="2.2" stroke-linejoin="round" stroke-linecap="round"/>
<circle cx="74.0" cy="247.5" r="3.4" fill="#3f5fd0"/>
<circle cx="206.0" cy="211.0" r="3.4" fill="#3f5fd0"/>
<circle cx="338.0" cy="192.9" r="3.4" fill="#3f5fd0"/>
<circle cx="470.0" cy="203.2" r="3.4" fill="#3f5fd0"/>
<circle cx="602.0" cy="206.1" r="3.4" fill="#3f5fd0"/>
<circle cx="734.0" cy="212.1" r="3.4" fill="#3f5fd0"/>
<polyline points="74.0,123.3 206.0,90.6 338.0,62.4 470.0,52.5 602.0,57.0 734.0,52.7" fill="none" stroke="#c0392b" stroke-width="2.2" stroke-linejoin="round" stroke-linecap="round"/>
<circle cx="74.0" cy="123.3" r="3.4" fill="#c0392b"/>
<circle cx="206.0" cy="90.6" r="3.4" fill="#c0392b"/>
<circle cx="338.0" cy="62.4" r="3.4" fill="#c0392b"/>
<circle cx="470.0" cy="52.5" r="3.4" fill="#c0392b"/>
<circle cx="602.0" cy="57.0" r="3.4" fill="#c0392b"/>
<circle cx="734.0" cy="52.7" r="3.4" fill="#c0392b"/>
<rect x="671.6" y="16.0" width="10" height="10" rx="2" fill="#c0392b"/>
<text x="686.6" y="25.0" fill="#666b75" font-size="11.5" font-family="system-ui, -apple-system, 'Segoe UI', Roboto, sans-serif" font-weight="400" text-anchor="start">чтение</text>
<rect x="609.2" y="16.0" width="10" height="10" rx="2" fill="#3f5fd0"/>
<text x="624.2" y="25.0" fill="#666b75" font-size="11.5" font-family="system-ui, -apple-system, 'Segoe UI', Roboto, sans-serif" font-weight="400" text-anchor="start">запись</text>
</svg>
